<svg width="284" height="280" viewBox="0 0 284 280" fill="none" xmlns="http://www.w3.org/2000/svg">
<path d="M283.55 0H0V279.86H283.55V0Z" fill="white"/>
<path fill-rule="evenodd" clip-rule="evenodd" d="M222.545 232.864H204.742V223.722H250.29V232.864H232.488V279.856H222.545V232.864Z" fill="#414141"/>
<path fill-rule="evenodd" clip-rule="evenodd" d="M86.6639 247.057H114.812V255.959H86.6639V270.954H118.821V279.856H76.8809V247.057H86.6639Z" fill="#414141"/>
<path fill-rule="evenodd" clip-rule="evenodd" d="M76.8809 223.722H118.421V232.623H86.6639H76.8809V223.722Z" fill="#3588C8"/>
<path fill-rule="evenodd" clip-rule="evenodd" d="M3.68896 223.722H12.817L42.823 262.534V223.722H52.606V279.856H44.359L13.472 239.92V279.856H3.68896V223.722Z" fill="#414141"/>
<path fill-rule="evenodd" clip-rule="evenodd" d="M142.455 159.89H170.603V168.791H142.455V183.787H174.612V192.688H132.672V159.89H142.455Z" fill="#414141"/>
<path fill-rule="evenodd" clip-rule="evenodd" d="M132.672 136.555H174.211V145.456H142.455H132.672V136.555Z" fill="#3588C8"/>
<path fill-rule="evenodd" clip-rule="evenodd" d="M64.853 136.555H89.872C93.0621 136.5 96.2372 137.001 99.255 138.037C101.795 138.912 104.119 140.319 106.071 142.164C107.564 143.709 108.736 145.535 109.52 147.536C110.342 149.686 110.749 151.972 110.72 154.273V154.433C110.751 156.547 110.413 158.651 109.72 160.649C109.089 162.427 108.153 164.082 106.954 165.539C105.763 166.969 104.34 168.189 102.744 169.148C101.057 170.161 99.2342 170.931 97.331 171.433L112.487 192.684H100.859L87.025 173.118H74.636V192.684H64.853V136.555ZM89.111 164.381C92.6524 164.381 95.468 163.534 97.558 161.841C98.5863 161.022 99.4066 159.971 99.9523 158.775C100.498 157.579 100.753 156.271 100.698 154.958V154.798C100.784 153.477 100.551 152.155 100.018 150.943C99.4854 149.731 98.6691 148.665 97.638 147.835C95.606 146.245 92.737 145.452 89.031 145.456H74.631V164.381H89.111Z" fill="#414141"/>
<path fill-rule="evenodd" clip-rule="evenodd" d="M23.416 193.49C19.1743 193.506 14.9644 192.759 10.987 191.285C6.92492 189.75 3.19515 187.45 0 184.509L5.935 177.451C8.4134 179.643 11.195 181.466 14.194 182.864C17.1771 184.162 20.4041 184.805 23.657 184.749C26.218 184.885 28.7568 184.211 30.914 182.824C31.7581 182.264 32.447 181.501 32.9167 180.603C33.3865 179.706 33.6219 178.705 33.601 177.692V177.533C33.6192 176.611 33.4413 175.695 33.079 174.846C32.6362 173.959 31.9735 173.199 31.154 172.64C29.963 171.821 28.663 171.173 27.292 170.715C25.1996 170.001 23.0665 169.412 20.904 168.952C18.1878 168.342 15.5152 167.551 12.904 166.586C10.7941 165.826 8.81459 164.744 7.03601 163.378C5.47843 162.152 4.23656 160.572 3.414 158.768C2.53345 156.69 2.10923 154.447 2.17 152.191V152.031C2.14097 149.798 2.60785 147.585 3.53697 145.554C4.46609 143.523 5.8343 141.723 7.543 140.284C9.32418 138.804 11.3695 137.674 13.571 136.955C16.0487 136.133 18.6456 135.728 21.256 135.755C25.035 135.698 28.7945 136.307 32.362 137.555C35.7135 138.793 38.8419 140.568 41.625 142.808L36.332 150.265C33.9848 148.518 31.4249 147.076 28.714 145.974C26.2911 145.003 23.7062 144.5 21.096 144.491C18.6967 144.345 16.3196 145.024 14.36 146.416C13.6144 146.959 13.0078 147.671 12.5897 148.493C12.1716 149.315 11.9537 150.225 11.954 151.147V151.308C11.9356 152.286 12.1269 153.257 12.515 154.155C12.9747 155.079 13.6829 155.856 14.56 156.4C15.841 157.2 17.2188 157.834 18.66 158.285C20.41 158.873 22.615 159.485 25.302 160.128C27.9639 160.786 30.5801 161.617 33.134 162.615C35.1972 163.397 37.1132 164.522 38.801 165.943C40.2622 167.198 41.43 168.758 42.222 170.514C43.032 172.428 43.4284 174.491 43.385 176.568V176.728C43.4225 179.16 42.9201 181.571 41.914 183.785C40.9574 185.832 39.5568 187.64 37.814 189.077C35.9538 190.582 33.812 191.699 31.514 192.365C28.8852 193.139 26.1561 193.518 23.416 193.49Z" fill="#414141"/>
<path fill-rule="evenodd" clip-rule="evenodd" d="M273.601 269.912H237.401V279.855H283.548V0H3.689V137.13C3.90833 136.93 4.13199 136.732 4.35999 136.536C6.61111 134.661 9.19509 133.226 11.977 132.306C12.5243 132.118 13.076 131.951 13.632 131.806V9.944H273.601V269.912Z" fill="#3588C8"/>
<path fill-rule="evenodd" clip-rule="evenodd" d="M163.705 260.564L177.099 279.854H188.727L169.327 252.512L163.705 260.564ZM169.377 249.718L187.924 223.718H176.618L163.948 241.891L169.377 249.718Z" fill="#414141"/>
<path fill-rule="evenodd" clip-rule="evenodd" d="M162.344 258.605L167.597 251.08L162.584 243.85L148.631 223.722H137.003L156.651 251.308L136.202 279.855H147.509L162.344 258.605Z" fill="#3588C8"/>
</svg>
